<svg width="153" height="148" viewBox="0 0 153 148" fill="none" xmlns="http://www.w3.org/2000/svg">
<path d="M80.303 14.4497C80.303 14.4497 84.2762 40.0003 127.106 40.7055C165.142 41.3317 153.054 86.5722 139.552 100.798C122.062 119.226 87.7849 114.405 85.9859 135.854C84.1868 157.303 35.8644 148.976 36.6874 116.636C37.7113 76.4072 15.6756 88.6399 4.5201 77.8791C-3.48629 70.1559 -0.734288 34.4055 24.6431 30.3126C45.9977 26.8685 44.8906 17.821 46.5884 11.1231C49.0368 1.46344 73.7925 -7.28683 80.303 14.4497Z" fill="#F5F7FA"/>
<path d="M120.596 105.401C120.598 106.05 120.472 106.694 120.225 107.294C119.978 107.894 119.615 108.44 119.157 108.9C118.699 109.36 118.155 109.725 117.555 109.974C116.956 110.223 116.313 110.352 115.664 110.352L36.5577 110.512C35.9087 110.514 35.2657 110.388 34.6655 110.141C34.0654 109.894 33.5198 109.531 33.06 109.073C32.6003 108.615 32.2353 108.071 31.986 107.471C31.7367 106.872 31.608 106.23 31.6073 105.581L31.4961 49.9591L75.2826 22.4696C75.4785 22.346 75.7052 22.2799 75.9368 22.2788C76.1684 22.2777 76.3957 22.3417 76.5928 22.4635L119.458 49.143L120.484 49.7796V50.6696L120.596 105.401Z" fill="#0091E5"/>
<path d="M114.143 27.2571H37.3706C37.1875 27.2571 37.0391 27.4055 37.0391 27.5886V109.74C37.0391 109.923 37.1875 110.071 37.3706 110.071H114.143C114.326 110.071 114.475 109.923 114.475 109.74V27.5886C114.475 27.4055 114.326 27.2571 114.143 27.2571Z" fill="#0072B4"/>
<path d="M115.586 110.273L76.3216 80.3358C76.2899 80.3117 76.2645 80.2805 76.2473 80.2446C76.2301 80.2087 76.2217 80.1693 76.2227 80.1296C76.2238 80.0898 76.2342 80.0509 76.2532 80.0159C76.2722 79.981 76.2992 79.9511 76.3321 79.9287L120.09 50.021C120.128 49.9953 120.172 49.9803 120.217 49.9777C120.263 49.9751 120.308 49.985 120.349 50.0063C120.389 50.0275 120.423 50.0594 120.447 50.0985C120.47 50.1376 120.483 50.1823 120.483 50.228L120.593 105.375C120.596 106.67 120.09 107.915 119.184 108.841C118.279 109.767 117.046 110.301 115.751 110.328C115.691 110.328 115.633 110.309 115.586 110.273Z" fill="#007BC2"/>
<path d="M36.6251 110.431L75.7692 80.337C75.8008 80.3128 75.8261 80.2814 75.8431 80.2455C75.8602 80.2095 75.8684 80.1701 75.8673 80.1303C75.8661 80.0906 75.8555 80.0517 75.8363 80.0168C75.8172 79.982 75.79 79.9522 75.7571 79.9298L31.8804 50.1973C31.8426 50.1717 31.7986 50.1568 31.753 50.1544C31.7074 50.152 31.662 50.162 31.6216 50.1834C31.5813 50.2049 31.5476 50.2369 31.5241 50.276C31.5006 50.3152 31.4882 50.36 31.4883 50.4057L31.5988 105.552C31.6014 106.848 32.1122 108.09 33.0214 109.013C33.9307 109.935 35.1656 110.464 36.4608 110.486C36.5202 110.486 36.578 110.467 36.6251 110.431Z" fill="#007BC2"/>
<path d="M115.66 110.329L36.5537 110.487C35.357 110.486 34.2011 110.052 33.2993 109.265C32.3975 108.478 31.8108 107.392 31.6475 106.206C31.6207 106.004 31.644 105.799 31.7156 105.608C31.7872 105.417 31.9048 105.246 32.0579 105.112L75.2027 66.9412C75.428 66.7418 75.7183 66.6315 76.0192 66.6309C76.32 66.6303 76.6108 66.7394 76.8369 66.9379L120.133 104.936C120.287 105.07 120.405 105.24 120.478 105.43C120.55 105.621 120.574 105.826 120.548 106.029C120.39 107.215 119.807 108.303 118.909 109.094C118.01 109.884 116.856 110.323 115.66 110.329Z" fill="#0091E6"/>
<path d="M56.6873 47.6517C58.2232 47.6517 59.4684 45.9915 59.4684 43.9436C59.4684 41.8957 58.2232 40.2356 56.6873 40.2356C55.1514 40.2356 53.9062 41.8957 53.9062 43.9436C53.9062 45.9915 55.1514 47.6517 56.6873 47.6517Z" fill="white"/>
<path d="M95.6248 47.6517C97.1608 47.6517 98.4059 45.9915 98.4059 43.9436C98.4059 41.8957 97.1608 40.2356 95.6248 40.2356C94.0889 40.2356 92.8438 41.8957 92.8438 43.9436C92.8438 45.9915 94.0889 47.6517 95.6248 47.6517Z" fill="white"/>
<path d="M86.6632 59.9468C86.5694 59.9469 86.4771 59.9231 86.395 59.8776C86.3129 59.8322 86.2437 59.7665 86.194 59.687C86.165 59.6409 83.1404 54.9686 76.1106 54.383C73.1846 54.1393 70.4079 54.954 67.8607 56.8055C66.7247 57.6212 65.7156 58.6005 64.8662 59.7116C64.7817 59.8306 64.6535 59.9112 64.5097 59.9361C64.366 59.9609 64.2182 59.9278 64.0987 59.8441C63.9792 59.7603 63.8977 59.6327 63.8719 59.4891C63.8462 59.3455 63.8783 59.1975 63.9613 59.0774C64.0076 59.0111 65.1191 57.4399 67.1781 55.9354C69.915 53.9353 73.0358 53.0182 76.2022 53.2815C83.8069 53.9152 86.9989 58.89 87.1306 59.1014C87.1829 59.185 87.2118 59.2811 87.2145 59.3796C87.2171 59.4782 87.1933 59.5757 87.1456 59.6619C87.0978 59.7482 87.0279 59.8201 86.9429 59.8702C86.858 59.9203 86.7612 59.9468 86.6626 59.9469L86.6632 59.9468Z" fill="white"/>
</svg>
