<svg width="221" height="222" viewBox="0 0 221 222" fill="none" xmlns="http://www.w3.org/2000/svg">
<path d="M142.545 43.6004C142.545 43.6004 118.906 73.5425 81.0845 55.6823C43.2629 37.8221 5.4412 86.1498 38.0099 115.567C70.5785 144.983 38.7077 161.148 60.8335 179.176C85.981 199.667 107.875 158.116 127.836 167.571C171.892 188.44 204.53 180.179 197.176 156.015C184.267 113.598 167.759 110.839 180.366 88.7763C192.973 66.7136 165.149 20.84 142.545 43.6004Z" fill="#F5F7FA"/>
<path d="M129.672 126.412L127.805 136.439L118.91 184.1L102.887 181.108L113.161 126.051L113.649 123.427L129.672 126.412Z" fill="#0072B4"/>
<path d="M169.135 102.435L163.61 132.056C163.594 132.143 163.56 132.225 163.512 132.299C163.464 132.373 163.402 132.437 163.329 132.487C163.256 132.537 163.174 132.572 163.088 132.59C163.001 132.609 162.912 132.61 162.825 132.593L85.2031 118.116L94.3393 69.1315L153.282 80.1251C163.966 82.1172 171.062 92.1038 169.135 102.435Z" fill="#0091E5"/>
<path d="M110.917 92.4948L105.436 121.886L64.6914 114.286L70.1731 84.8956C72.1914 74.0744 82.9488 67.0029 94.1997 69.1013C105.451 71.1997 112.936 81.6733 110.917 92.4948Z" fill="#328DC2"/>
<path d="M129.886 106.234C126.883 105.674 124.902 102.756 125.467 99.7255C126.033 96.6951 128.932 94.6867 131.935 95.247C132.892 95.4268 133.784 95.8569 134.521 96.4935C135.258 97.1302 135.813 97.9506 136.13 98.8714L174.057 105.945L173.033 111.439L135.106 104.365C134.478 105.11 133.665 105.675 132.748 106.003C131.831 106.332 130.843 106.411 129.886 106.234Z" fill="url(#paint0_linear_1738_23170)" fill-opacity="0.79"/>
<path d="M109.567 93.035L104.226 121.67L65.8438 114.512L71.185 85.8761C73.1513 75.3331 83.338 68.3884 93.9369 70.3652C104.536 72.3421 111.534 82.4918 109.567 93.035Z" fill="#0072B4"/>
<path d="M130.962 103.459C132.505 103.459 133.756 102.208 133.756 100.665C133.756 99.1214 132.505 97.8704 130.962 97.8704C129.419 97.8704 128.168 99.1214 128.168 100.665C128.168 102.208 129.419 103.459 130.962 103.459Z" fill="white"/>
<path d="M174.497 105.926L171.147 123.888C171.132 123.966 171.088 124.034 171.023 124.079C170.958 124.123 170.878 124.14 170.801 124.126L161.994 122.483C161.979 122.48 161.965 122.471 161.956 122.459C161.948 122.446 161.944 122.43 161.947 122.415L165.341 104.218C165.344 104.203 165.353 104.189 165.365 104.18C165.378 104.172 165.394 104.168 165.409 104.171L174.45 105.857C174.466 105.86 174.479 105.869 174.488 105.882C174.497 105.895 174.5 105.91 174.497 105.926Z" fill="url(#paint1_linear_1738_23170)"/>
<path d="M78.5449 104.236C78.9157 106.964 81.9094 110.207 81.9094 110.207C77.3477 110.53 74.8773 107.95 73.8143 106.383C72.5 106.762 71.1492 107.002 69.7846 107.098C60.4196 107.762 52.3577 101.647 51.7755 93.4347C51.1933 85.2219 58.3122 78.0316 67.6772 77.368C77.0422 76.7043 85.1035 82.818 85.6856 91.031C86.0643 96.3731 83.1817 101.283 78.5449 104.236Z" fill="white"/>
<path d="M105.474 121.904C105.05 122.977 97.2949 154.955 72.1984 150.275C44.6784 145.615 64.5842 114.277 64.5842 114.277L105.474 121.904Z" fill="#0091E5"/>
<path d="M68.7308 95.0502C70.0168 95.0502 71.0593 94.0077 71.0593 92.7218C71.0593 91.4358 70.0168 90.3933 68.7308 90.3933C67.4448 90.3933 66.4023 91.4358 66.4023 92.7218C66.4023 94.0077 67.4448 95.0502 68.7308 95.0502Z" fill="#E1E4EA"/>
<path d="M58.3073 94.0348C59.6011 94.0348 60.6498 92.9861 60.6498 91.6923C60.6498 90.3986 59.6011 89.3499 58.3073 89.3499C57.0136 89.3499 55.9648 90.3986 55.9648 91.6923C55.9648 92.9861 57.0136 94.0348 58.3073 94.0348Z" fill="#E1E4EA"/>
<path d="M79.0534 96.0425C80.3472 96.0425 81.3959 94.9937 81.3959 93.7C81.3959 92.4062 80.3472 91.3575 79.0534 91.3575C77.7597 91.3575 76.7109 92.4062 76.7109 93.7C76.7109 94.9937 77.7597 96.0425 79.0534 96.0425Z" fill="#E1E4EA"/>
<path d="M129.672 126.412L127.804 136.439L113.16 126.051L113.649 123.427L129.672 126.412Z" fill="#006199"/>
<defs>
<linearGradient id="paint0_linear_1738_23170" x1="147.353" y1="91.0819" x2="154.924" y2="117.52" gradientUnits="userSpaceOnUse">
<stop stop-color="#E3E3E3"/>
<stop offset="0.485" stop-color="#9DA7B9"/>
<stop offset="1" stop-color="#AAACAF"/>
</linearGradient>
<linearGradient id="paint1_linear_1738_23170" x1="175.255" y1="114.563" x2="160.577" y2="117.846" gradientUnits="userSpaceOnUse">
<stop stop-color="#E3E3E3"/>
<stop offset="0.485" stop-color="#9DA7B9"/>
<stop offset="1" stop-color="#AAACAF"/>
</linearGradient>
</defs>
</svg>
