<svg width="221" height="221" viewBox="0 0 221 221" fill="none" xmlns="http://www.w3.org/2000/svg">
<path d="M169.269 85.8663C169.269 85.8663 149.506 103.213 172.262 140.359C192.471 173.348 147.047 187.648 127.473 183.818C102.116 178.858 87.5573 146.809 68.1661 156.964C48.7749 167.119 29.5647 121.101 57.7711 104.168C92.8586 83.1042 70.3399 70.8635 73.4912 55.4187C75.753 44.3341 107.939 27.1963 125.294 46.7454C139.898 63.1957 147.059 57.3105 153.734 55.1144C163.361 51.947 184.374 68.4223 169.269 85.8663Z" fill="#F5F7FA"/>
<path d="M113.312 105.414L106.837 131.973C106.597 132.957 106.553 133.98 106.708 134.982C106.863 135.984 107.214 136.945 107.74 137.812C108.267 138.678 108.959 139.432 109.777 140.031C110.596 140.629 111.524 141.061 112.509 141.301L144.711 149.151C145.538 158.242 153.062 158.914 156.03 159.226C156.059 159.227 156.088 159.219 156.112 159.203C156.137 159.186 156.155 159.162 156.164 159.134C156.173 159.106 156.172 159.076 156.162 159.049C156.153 159.021 156.134 158.998 156.109 158.982C153.978 157.682 153.341 154.121 153.199 151.221L155.59 151.803C156.575 152.044 157.597 152.088 158.599 151.933C159.601 151.778 160.563 151.427 161.429 150.9C162.295 150.374 163.049 149.682 163.648 148.863C164.247 148.045 164.678 147.117 164.918 146.132L171.393 119.574C171.633 118.589 171.677 117.566 171.522 116.564C171.367 115.562 171.016 114.601 170.49 113.735C169.963 112.868 169.271 112.114 168.453 111.516C167.634 110.917 166.706 110.485 165.721 110.246L122.64 99.7428C121.655 99.5024 120.633 99.4584 119.631 99.6134C118.629 99.7683 117.667 100.119 116.801 100.646C115.935 101.173 115.181 101.865 114.582 102.683C113.983 103.501 113.552 104.429 113.312 105.414Z" fill="#0091E5"/>
<path d="M166.729 118.516L148.723 114.126C148.604 114.097 148.484 114.17 148.455 114.289L147.532 118.078C147.503 118.196 147.575 118.316 147.694 118.345L165.701 122.735C165.819 122.764 165.939 122.691 165.968 122.572L166.891 118.783C166.92 118.665 166.848 118.545 166.729 118.516Z" fill="#F6F8FA"/>
<path d="M164.158 129.063L115.371 117.169C115.252 117.14 115.133 117.212 115.104 117.331L114.18 121.12C114.151 121.239 114.224 121.358 114.343 121.387L163.13 133.281C163.249 133.31 163.368 133.237 163.397 133.119L164.321 129.33C164.35 129.211 164.277 129.092 164.158 129.063Z" fill="#F6F8FA"/>
<path d="M161.584 139.609L112.797 127.715C112.678 127.686 112.559 127.759 112.53 127.878L111.606 131.667C111.577 131.785 111.65 131.905 111.768 131.934L160.556 143.828C160.674 143.857 160.794 143.784 160.823 143.665L161.747 139.876C161.775 139.758 161.703 139.638 161.584 139.609Z" fill="#F6F8FA"/>
<path d="M131.444 73.5553L142.032 107.556C142.425 108.817 142.565 110.143 142.446 111.458C142.326 112.773 141.948 114.052 141.335 115.221C140.721 116.391 139.882 117.428 138.867 118.273C137.853 119.118 136.681 119.755 135.42 120.147L94.1949 132.984C93.8613 144.871 84.1349 146.36 80.3013 147.007C80.2633 147.012 80.2247 147.004 80.1916 146.985C80.1585 146.965 80.1329 146.935 80.1187 146.9C80.1046 146.864 80.1028 146.825 80.1136 146.788C80.1244 146.751 80.1472 146.719 80.1783 146.696C82.8433 144.833 83.3796 140.15 83.3276 136.368L80.2668 137.321C79.006 137.714 77.6801 137.855 76.3649 137.735C75.0497 137.616 73.771 137.238 72.6018 136.624C71.4326 136.01 70.3958 135.172 69.5506 134.157C68.7055 133.142 68.0685 131.971 67.6762 130.71L57.0883 96.7094C56.6953 95.4485 56.5545 94.1226 56.6741 92.8073C56.7937 91.4921 57.1713 90.2133 57.7852 89.044C58.3992 87.8747 59.2375 86.8379 60.2523 85.9927C61.2671 85.1475 62.4385 84.5105 63.6996 84.1182L118.852 66.944C120.113 66.551 121.439 66.4102 122.754 66.5298C124.07 66.6494 125.349 67.027 126.518 67.6409C127.687 68.2549 128.724 69.0932 129.569 70.108C130.414 71.1229 131.051 72.2943 131.444 73.5553Z" fill="#0072B4"/>
<path d="M92.4916 85.7328L62.9571 94.9179C62.8406 94.9541 62.7755 95.078 62.8117 95.1946L64.3604 100.174C64.3967 100.291 64.5206 100.356 64.6371 100.32L94.1715 91.1348C94.2881 91.0985 94.3532 90.9747 94.317 90.8581L92.7683 85.8783C92.732 85.7617 92.6081 85.6966 92.4916 85.7328Z" fill="#F6F8FA"/>
<path d="M129.762 88.8891L67.1758 108.379C67.0593 108.415 66.9943 108.539 67.0306 108.655L68.581 113.634C68.6172 113.751 68.7411 113.816 68.8577 113.779L131.444 94.2897C131.56 94.2534 131.625 94.1296 131.589 94.013L130.038 89.0344C130.002 88.9178 129.878 88.8528 129.762 88.8891Z" fill="#F6F8FA"/>
<path d="M133.96 102.46L71.3595 121.929C71.2429 121.965 71.1778 122.089 71.2141 122.205L72.7628 127.185C72.799 127.302 72.9229 127.367 73.0395 127.33L135.64 107.862C135.757 107.826 135.822 107.702 135.785 107.585L134.237 102.606C134.2 102.489 134.077 102.424 133.96 102.46Z" fill="#F6F8FA"/>
</svg>
